<?xml version="1.0" encoding="utf-8"?>
<!-- Generator: Adobe Illustrator 24.1.0, SVG Export Plug-In . SVG Version: 6.00 Build 0)  -->
<svg version="1.1" id="Layer_1" xmlns="http://www.w3.org/2000/svg" xmlns:xlink="http://www.w3.org/1999/xlink" x="0px" y="0px"
	 viewBox="0 0 700 200" style="enable-background:new 0 0 700 200;" xml:space="preserve">
<style type="text/css">
	.st0{fill:#F2C41D;}
	.st1{fill:#FFE045;}
</style>
<g>
	<g>
		<g>
			<path class="st0" d="M210.77,93.17v-23.1c-1.36-0.74-2.92-1.53-4.67-2.35c-1.75-0.84-3.79-1.58-6.11-2.23
				c-2.3-0.65-4.91-1.18-7.8-1.61s-6.19-0.65-9.9-0.65c-5.35,0-10.22,0.69-14.6,2.04c-4.37,1.36-8.1,3.52-11.13,6.47
				c-3.05,2.95-5.42,6.81-7.08,11.56c-1.66,4.73-2.49,10.46-2.49,17.19c0,6.78,0.82,12.52,2.49,17.24s4.05,8.56,7.12,11.51
				c3.09,2.95,6.81,5.11,11.18,6.47c4.37,1.36,9.28,2.04,14.7,2.04c3.64,0,6.91-0.22,9.85-0.65c2.93-0.43,5.54-0.98,7.86-1.61
				c2.32-0.65,4.34-1.39,6.11-2.23c1.75-0.82,3.24-1.61,4.48-2.35v-23.94h-22.18v7.5c0,2.4-0.53,4.13-1.58,5.21
				c-1.05,1.08-2.62,1.61-4.72,1.61c-2.09,0-3.65-0.53-4.7-1.61c-1.06-1.08-1.58-2.81-1.58-5.21V86.52c0-2.4,0.51-4.13,1.58-5.21
				c1.05-1.08,2.61-1.63,4.7-1.63c2.09,0,3.67,0.55,4.72,1.63c1.05,1.08,1.58,2.81,1.58,5.21v6.65H210.77z"/>
			<path class="st0" d="M283.8,121.27l-5.73-20.79l-9.9-35.95h-33.65l-9.9,35.95l-5.73,20.79h-3.69v15.16h31.61v-15.16h-5.54
				l1.48-7.29h12.47l1.58,7.29h-5.54v15.16h36.22v-15.16H283.8z M244.78,104.18l0.75-3.7l3.04-14.79h0.93l3.04,14.79l0.75,3.7
				H244.78z"/>
			<path class="st0" d="M348.26,104c-0.63-1.25-1.39-2.44-2.25-3.52c-0.99-1.25-2.14-2.38-3.43-3.41c-2.4-1.92-5.2-3.52-8.37-4.82
				c-3.17-1.29-6.55-2.52-10.12-3.69c-1.9-0.62-3.34-1.17-4.29-1.66c-0.96-0.5-1.44-1.27-1.44-2.32c0-1.29,0.45-2.2,1.34-2.73
				c0.89-0.51,2.37-0.79,4.39-0.79c1.42,0,2.62,0.33,3.6,0.98c0.99,0.65,1.49,1.87,1.49,3.65h19.4V69.14
				c-3.14-1.78-7.08-3.22-11.83-4.31c-4.73-1.06-9.79-1.61-15.15-1.61c-5.92,0-10.89,0.51-14.94,1.53c-4.03,1.01-7.27,2.5-9.71,4.44
				c-2.42,1.94-4.19,4.29-5.27,7.02c-1.08,2.74-1.61,5.85-1.61,9.3c0,3.64,0.55,6.74,1.66,9.3c0.93,2.13,2.25,4.01,3.94,5.68
				c0.34,0.36,0.72,0.69,1.1,1.01c2.25,1.92,5.08,3.65,8.51,5.23c3.41,1.56,7.39,3.22,11.95,4.94c2.16,0.86,3.6,1.61,4.31,2.26
				c0.7,0.65,1.06,1.41,1.06,2.26c0,1.23-0.43,2.16-1.29,2.78c-0.87,0.62-2.32,0.93-4.36,0.93c-2.33,0-3.88-0.45-4.61-1.34
				c-0.74-0.89-1.11-2.26-1.11-4.12h-20.34v18.3c3.16,1.36,7.34,2.52,12.57,3.52c5.25,0.98,10.7,1.48,16.36,1.48
				c9.98,0,17.56-1.96,22.74-5.87c5.18-3.93,7.77-9.88,7.77-17.89C350.35,110.03,349.65,106.71,348.26,104z"/>
			<path class="st0" d="M385.1,79.67h5.54V64.53h-36.96v15.15h5.54v41.59h-5.54v15.16h36.96v-15.16h-5.54V79.67z"/>
			<path class="st0" d="M447.04,64.53v15.15h5.54v22.01l-0.79-1.2l-23.52-35.95h-34.3v15.15h5.56v41.59h-5.56v15.16h32.35v-15.16
				h-5.54V94.75l3.72,5.73l23.36,35.95h25.97V79.67h5.56V64.53H447.04z"/>
			<path class="st0" d="M548.07,83.29c-1.66-4.75-4.03-8.61-7.08-11.56c-3.04-2.95-6.76-5.11-11.13-6.47
				c-4.37-1.36-9.25-2.04-14.6-2.04c-5.37,0-10.24,0.69-14.61,2.04c-4.37,1.36-8.08,3.52-11.13,6.47
				c-3.05,2.95-5.42,6.81-7.08,11.56c-1.66,4.73-2.49,10.46-2.49,17.19c0,6.78,0.82,12.52,2.49,17.24
				c1.66,4.72,4.03,8.56,7.08,11.51c3.05,2.95,6.76,5.11,11.13,6.47c4.37,1.36,9.24,2.04,14.61,2.04c5.35,0,10.22-0.69,14.6-2.04
				c4.37-1.36,8.1-3.52,11.13-6.47c3.05-2.95,5.42-6.79,7.08-11.51s2.49-10.46,2.49-17.24C550.55,93.76,549.73,88.03,548.07,83.29z
				 M521.53,114.44c0,2.4-0.53,4.13-1.58,5.21c-1.05,1.08-2.61,1.61-4.7,1.61c-2.11,0-3.67-0.53-4.72-1.61
				c-1.05-1.08-1.58-2.81-1.58-5.21V86.52c0-2.4,0.53-4.13,1.58-5.21c1.05-1.08,2.61-1.63,4.72-1.63c2.09,0,3.65,0.55,4.7,1.63
				c1.05,1.08,1.58,2.81,1.58,5.21V114.44z"/>
		</g>
	</g>
	<g>
		<path class="st1" d="M206.11,67.72c1.75,0.82,3.31,1.61,4.67,2.35v23.1h-22.18v-6.65c0-2.4-0.53-4.13-1.58-5.21
			c-1.05-1.08-2.62-1.63-4.72-1.63c-2.09,0-3.65,0.55-4.7,1.63c-1.06,1.08-1.58,2.81-1.58,5.21v13.96H147
			c0-6.72,0.82-12.45,2.49-17.19c1.66-4.75,4.03-8.61,7.08-11.56c3.04-2.95,6.76-5.11,11.13-6.47c4.37-1.36,9.25-2.04,14.6-2.04
			c3.7,0,7,0.22,9.9,0.65s5.51,0.96,7.8,1.61C202.32,66.14,204.36,66.88,206.11,67.72z"/>
		<polygon class="st1" points="278.08,100.48 252.54,100.48 249.5,85.69 248.57,85.69 245.54,100.48 224.63,100.48 234.53,64.53 
			268.18,64.53 		"/>
		<path class="st1" d="M336.75,64.84c4.75,1.08,8.7,2.52,11.83,4.31v16.55h-19.4c0-1.78-0.5-3-1.49-3.65
			c-0.98-0.65-2.18-0.98-3.6-0.98c-2.02,0-3.5,0.27-4.39,0.79c-0.89,0.53-1.34,1.44-1.34,2.73c0,1.05,0.48,1.82,1.44,2.32
			c0.94,0.5,2.38,1.05,4.29,1.66c3.57,1.17,6.95,2.4,10.12,3.69c3.17,1.3,5.97,2.9,8.37,4.82c1.29,1.03,2.44,2.16,3.43,3.41h-50.32
			c-1.7-1.66-3.02-3.55-3.94-5.68c-1.11-2.56-1.66-5.66-1.66-9.3c0-3.45,0.53-6.55,1.61-9.3c1.08-2.73,2.85-5.08,5.27-7.02
			c2.44-1.94,5.68-3.43,9.71-4.44c4.05-1.01,9.02-1.53,14.94-1.53C326.96,63.23,332.02,63.77,336.75,64.84z"/>
		<polygon class="st1" points="353.68,64.53 390.64,64.53 390.64,79.67 385.1,79.67 385.1,100.48 359.22,100.48 359.22,79.67 
			353.68,79.67 		"/>
		<polygon class="st1" points="451.79,100.48 424.5,100.48 420.78,94.75 420.78,100.48 399.53,100.48 399.53,79.67 393.97,79.67 
			393.97,64.53 428.28,64.53 		"/>
		<polygon class="st1" points="447.04,64.53 479.39,64.53 479.39,79.67 473.83,79.67 473.83,100.48 452.58,100.48 452.58,79.67 
			447.04,79.67 		"/>
		<path class="st1" d="M521.53,100.48V86.52c0-2.4-0.53-4.13-1.58-5.21c-1.05-1.08-2.61-1.63-4.7-1.63c-2.11,0-3.67,0.55-4.72,1.63
			c-1.05,1.08-1.58,2.81-1.58,5.21v13.96h-29.02c0-6.72,0.82-12.45,2.49-17.19c1.66-4.75,4.03-8.61,7.08-11.56
			c3.05-2.95,6.76-5.11,11.13-6.47c4.37-1.36,9.24-2.04,14.61-2.04c5.35,0,10.22,0.69,14.6,2.04c4.37,1.36,8.1,3.52,11.13,6.47
			c3.05,2.95,5.42,6.81,7.08,11.56c1.66,4.73,2.49,10.46,2.49,17.19H521.53z"/>
	</g>
</g>
</svg>
